<svg 
 xmlns="http://www.w3.org/2000/svg"
 xmlns:xlink="http://www.w3.org/1999/xlink"
 width="14px" height="7px">
<path fill-rule="evenodd"  fill="rgb(255, 255, 255)"
 d="M13.292,3.251 L13.317,3.228 L10.18,0.192 C9.881,0.67 9.699,0.1 9.505,0.1 C9.311,0.1 9.128,0.67 8.991,0.192 L8.969,0.211 C8.831,0.336 8.756,0.501 8.756,0.677 C8.756,0.854 8.831,1.19 8.969,1.144 L10.499,2.577 L0.725,2.577 C0.324,2.577 0.1,2.873 0.1,3.236 L0.1,3.265 C0.1,3.628 0.324,3.924 0.725,3.924 L10.499,3.924 L8.969,5.358 C8.831,5.482 8.756,5.647 8.756,5.824 C8.756,6.0 8.831,6.165 8.969,6.289 L8.991,6.309 C9.128,6.435 9.311,6.502 9.505,6.502 C9.699,6.502 9.881,6.435 10.18,6.309 L13.317,3.272 L13.292,3.251 Z"/>
</svg>