<svg 
 xmlns="http://www.w3.org/2000/svg"
 xmlns:xlink="http://www.w3.org/1999/xlink"
 width="26px" height="26px">
<path fill-rule="evenodd"  fill="rgb(29, 29, 29)"
 d="M13.34,0.344 C6.86,0.344 0.454,5.977 0.454,12.924 C0.454,19.872 6.86,25.504 13.34,25.504 C19.981,25.504 25.613,19.872 25.613,12.924 C25.613,5.977 19.981,0.344 13.34,0.344 ZM16.276,10.438 L16.107,12.635 L13.855,12.635 L13.855,20.269 L11.9,20.269 L11.9,12.635 L9.490,12.635 L9.490,10.438 L11.9,10.438 L11.9,8.962 C11.9,8.311 11.25,7.307 11.498,6.686 C11.996,6.27 12.679,5.579 13.855,5.579 C15.770,5.579 16.577,5.853 16.577,5.853 L16.197,8.103 C16.197,8.103 15.564,7.919 14.974,7.919 C14.383,7.919 13.855,8.131 13.855,8.721 L13.855,10.438 L16.276,10.438 Z"/>
</svg>