<svg 
 xmlns="http://www.w3.org/2000/svg"
 xmlns:xlink="http://www.w3.org/1999/xlink"
 width="18px" height="21px">
<path fill-rule="evenodd"  fill="rgb(126, 182, 28)"
 d="M9.628,19.961 C9.473,20.89 9.280,20.153 9.89,20.153 C8.897,20.153 8.705,20.89 8.549,19.961 C7.733,19.286 0.565,13.238 0.565,8.874 C0.565,4.320 4.389,0.615 9.89,0.615 C13.788,0.615 17.612,4.320 17.612,8.874 C17.612,13.238 10.446,19.286 9.628,19.961 ZM9.89,2.226 C5.307,2.226 2.228,5.208 2.228,8.874 C2.228,11.704 6.767,16.249 9.89,18.275 C11.411,16.249 15.949,11.704 15.949,8.874 C15.949,5.208 12.872,2.226 9.89,2.226 ZM9.89,12.903 C6.797,12.903 4.932,11.96 4.932,8.874 C4.932,6.653 6.797,4.846 9.89,4.846 C11.381,4.846 13.246,6.653 13.246,8.874 C13.246,11.96 11.381,12.903 9.89,12.903 ZM9.89,6.457 C7.713,6.457 6.594,7.541 6.594,8.874 C6.594,10.207 7.713,11.292 9.89,11.292 C10.464,11.292 11.583,10.207 11.583,8.874 C11.583,7.541 10.464,6.457 9.89,6.457 Z"/>
</svg>