<svg 
 xmlns="http://www.w3.org/2000/svg"
 xmlns:xlink="http://www.w3.org/1999/xlink"
 width="26px" height="26px">
<path fill-rule="evenodd"  fill="rgb(29, 29, 29)"
 d="M12.768,25.176 C5.814,25.176 0.176,19.539 0.176,12.585 C0.176,5.630 5.814,0.6 12.768,0.6 C19.723,0.6 25.360,5.630 25.360,12.585 C25.360,19.539 19.723,25.176 12.768,25.176 ZM20.219,11.55 L20.219,8.13 C20.219,6.425 18.927,5.133 17.339,5.133 L8.198,5.133 C6.609,5.133 5.317,6.425 5.317,8.13 L5.317,11.55 L5.317,17.157 C5.317,18.745 6.609,20.37 8.198,20.37 L17.339,20.37 C18.927,20.37 20.219,18.745 20.219,17.157 L20.219,11.55 ZM17.339,18.585 L8.198,18.585 C7.410,18.585 6.769,17.944 6.769,17.157 L6.769,11.55 L8.994,11.55 C8.802,11.527 8.694,12.44 8.694,12.584 C8.694,14.831 10.521,16.660 12.768,16.660 C15.15,16.660 16.843,14.831 16.843,12.584 C16.843,12.44 16.734,11.527 16.543,11.55 L18.767,11.55 L18.767,17.157 C18.767,17.944 18.127,18.585 17.339,18.585 ZM15.968,6.858 L18.166,6.851 L18.495,6.849 L18.495,7.177 L18.495,9.376 L15.977,9.383 L15.968,6.858 ZM12.768,15.208 C11.322,15.208 10.146,14.31 10.146,12.584 C10.146,12.14 10.331,11.487 10.642,11.55 C11.119,10.394 11.893,9.961 12.768,9.961 C13.644,9.961 14.418,10.394 14.895,11.55 C15.206,11.487 15.392,12.14 15.392,12.584 C15.392,14.31 14.214,15.208 12.768,15.208 Z"/>
</svg>