<svg 
 xmlns="http://www.w3.org/2000/svg"
 xmlns:xlink="http://www.w3.org/1999/xlink"
 width="23px" height="23px">
<path fill-rule="evenodd"  fill="rgb(126, 182, 28)"
 d="M13.474,12.633 C14.38,13.196 14.788,13.507 15.588,13.507 C16.388,13.507 17.138,13.196 17.702,12.632 L21.826,8.501 C22.991,7.334 22.991,5.434 21.826,4.266 L18.678,1.114 C17.553,0.13 15.575,0.13 14.450,1.114 L10.326,5.244 C9.763,5.808 9.452,6.560 9.452,7.362 C9.452,8.163 9.763,8.915 10.326,9.479 L11.189,10.343 L10.73,11.461 L9.210,10.596 C8.85,9.468 6.107,9.468 4.982,10.596 L0.858,14.726 C0.295,15.290 0.15,16.42 0.15,16.844 C0.15,17.646 0.295,18.398 0.858,18.962 L4.6,22.115 C4.569,22.678 5.320,22.990 6.120,22.990 C6.920,22.990 7.670,22.678 8.234,22.114 L12.358,17.984 C13.523,16.816 13.523,14.917 12.358,13.749 L11.483,12.872 L12.598,11.755 L13.474,12.633 ZM10.948,15.160 C11.337,15.550 11.337,16.184 10.948,16.573 L6.825,20.702 C6.451,21.77 5.789,21.76 5.415,20.703 L2.267,17.550 C2.81,17.363 1.977,17.112 1.977,16.844 C1.977,16.576 2.81,16.325 2.267,16.138 L6.391,12.7 C6.578,11.820 6.828,11.717 7.96,11.717 C7.364,11.717 7.614,11.820 7.801,12.7 L8.664,12.872 L6.419,15.121 L7.828,16.532 L10.73,14.283 L10.948,15.160 ZM11.736,8.67 C11.549,7.881 11.446,7.630 11.446,7.362 C11.446,7.94 11.549,6.843 11.736,6.655 L15.860,2.525 C16.46,2.338 16.297,2.235 16.564,2.235 C16.832,2.235 17.82,2.338 17.269,2.525 L20.417,5.678 C20.805,6.68 20.805,6.701 20.417,7.90 L16.293,11.220 C15.919,11.595 15.257,11.593 14.883,11.220 L14.7,10.343 L15.801,8.546 L14.392,7.136 L12.598,8.932 L11.736,8.67 Z"/>
</svg>