<svg width="34" height="34" viewBox="0 0 34 34" fill="none" xmlns="http://www.w3.org/2000/svg">
<circle cx="17" cy="17" r="17" fill="#047ACF"/>
<path d="M17.786 26V25.66C18.1487 25.6373 18.4207 25.592 18.602 25.524C18.7833 25.456 18.9023 25.32 18.959 25.116C19.027 24.912 19.061 24.606 19.061 24.198V15.766C19.061 15.3467 19.027 15.0407 18.959 14.848C18.9023 14.644 18.7777 14.508 18.585 14.44C18.4037 14.3607 18.1373 14.3153 17.786 14.304V13.964C18.092 13.9753 18.4887 13.9867 18.976 13.998C19.4747 14.0093 19.9677 14.015 20.455 14.015C20.9763 14.015 21.4637 14.0093 21.917 13.998C22.3817 13.9867 22.7557 13.9753 23.039 13.964V14.304C22.6763 14.3153 22.3987 14.3607 22.206 14.44C22.0247 14.508 21.9057 14.644 21.849 14.848C21.7923 15.0407 21.764 15.3467 21.764 15.766V24.198C21.764 24.606 21.7923 24.912 21.849 25.116C21.917 25.32 22.0417 25.456 22.223 25.524C22.4043 25.592 22.6763 25.6373 23.039 25.66V26C22.7557 25.9773 22.3817 25.966 21.917 25.966C21.4637 25.9547 20.9763 25.949 20.455 25.949C19.9677 25.949 19.4747 25.9547 18.976 25.966C18.4887 25.966 18.092 25.9773 17.786 26ZM10.578 26V25.66C10.9407 25.6373 11.2127 25.592 11.394 25.524C11.5753 25.456 11.6943 25.32 11.751 25.116C11.819 24.912 11.853 24.606 11.853 24.198V15.766C11.853 15.3467 11.819 15.0407 11.751 14.848C11.6943 14.644 11.5697 14.508 11.377 14.44C11.1957 14.3607 10.9293 14.3153 10.578 14.304V13.964C10.8727 13.9753 11.2523 13.9867 11.717 13.998C12.193 14.0093 12.7087 14.015 13.264 14.015C13.74 14.015 14.2103 14.0093 14.675 13.998C15.1397 13.9867 15.525 13.9753 15.831 13.964V14.304C15.4683 14.3153 15.1907 14.3607 14.998 14.44C14.8167 14.508 14.6977 14.644 14.641 14.848C14.5843 15.0407 14.556 15.3467 14.556 15.766V24.198C14.556 24.606 14.5843 24.912 14.641 25.116C14.709 25.32 14.8337 25.456 15.015 25.524C15.1963 25.592 15.4683 25.6373 15.831 25.66V26C15.525 25.9773 15.1397 25.966 14.675 25.966C14.2103 25.9547 13.74 25.949 13.264 25.949C12.7087 25.949 12.193 25.9547 11.717 25.966C11.2523 25.966 10.8727 25.9773 10.578 26ZM13.451 20.118V19.778H20.166V20.118H13.451Z" fill="white"/>
<path d="M18.125 5.75C18.8845 5.75 19.5 6.375 19.5 7.25C19.5 9 17.625 10 17 10.375C16.375 10 14.5 9 14.5 7.25C14.5 6.375 15.125 5.75 15.875 5.75C16.34 5.75 16.75 6 17 6.25C17.25 6 17.66 5.75 18.125 5.75Z" fill="white"/>
</svg>
