<svg width="16" height="16" viewBox="0 0 16 16" fill="none" xmlns="http://www.w3.org/2000/svg">
<path d="M16 11.9289V15.072C16.0001 15.297 15.9148 15.5138 15.7614 15.6784C15.608 15.843 15.3978 15.9434 15.1733 15.9591C14.7849 15.9858 14.4676 16 14.2222 16C6.36711 16 0 9.63289 0 1.77778C0 1.53244 0.0133333 1.21511 0.0408889 0.826667C0.0566421 0.602172 0.156961 0.39201 0.321603 0.238586C0.486245 0.0851616 0.702954 -0.000101718 0.928 2.28071e-07H4.07111C4.18137 -0.000111408 4.28773 0.0407636 4.36954 0.114685C4.45134 0.188606 4.50275 0.290296 4.51378 0.4C4.53422 0.604445 4.55289 0.767111 4.57067 0.890667C4.74732 2.12349 5.10934 3.32252 5.64444 4.44711C5.72889 4.62489 5.67378 4.83733 5.51378 4.95111L3.59556 6.32178C4.7684 9.05462 6.94627 11.2325 9.67911 12.4053L11.048 10.4907C11.104 10.4124 11.1856 10.3563 11.2787 10.3321C11.3717 10.3079 11.4704 10.3172 11.5573 10.3582C12.6818 10.8923 13.8805 11.2534 15.1129 11.4293C15.2364 11.4471 15.3991 11.4667 15.6018 11.4862C15.7113 11.4975 15.8128 11.549 15.8865 11.6307C15.9603 11.7125 16.001 11.8188 16.0009 11.9289H16Z" fill="white"/>
</svg>
