<svg 
 xmlns="http://www.w3.org/2000/svg"
 xmlns:xlink="http://www.w3.org/1999/xlink"
 width="18px" height="18px">
<path fill-rule="evenodd"  fill="rgb(255, 255, 255)"
 d="M0.0,18.0 L0.0,16.272 C0.0,12.937 2.713,10.224 6.47,10.224 L11.231,10.224 C14.565,10.224 17.278,12.937 17.278,16.272 L17.278,18.0 L0.0,18.0 ZM11.231,11.952 L6.47,11.952 C3.665,11.952 1.727,13.890 1.727,16.272 L15.550,16.272 C15.550,13.890 13.612,11.952 11.231,11.952 ZM8.639,9.360 C6.257,9.360 4.319,7.422 4.319,5.40 C4.319,2.659 6.257,0.721 8.639,0.721 C11.21,0.721 12.959,2.659 12.959,5.40 C12.959,7.422 11.21,9.360 8.639,9.360 ZM8.639,2.449 C7.210,2.449 6.47,3.611 6.47,5.40 C6.47,6.470 7.210,7.632 8.639,7.632 C10.68,7.632 11.231,6.470 11.231,5.40 C11.231,3.611 10.68,2.449 8.639,2.449 Z"/>
</svg>