<svg 
 xmlns="http://www.w3.org/2000/svg"
 xmlns:xlink="http://www.w3.org/1999/xlink"
 width="26px" height="27px">
<path fill-rule="evenodd"  fill="rgb(29, 29, 29)"
 d="M12.575,26.36 C5.646,26.36 0.28,20.419 0.28,13.490 C0.28,6.561 5.646,0.943 12.575,0.943 C19.504,0.943 25.121,6.561 25.121,13.490 C25.121,20.419 19.504,26.36 12.575,26.36 ZM20.324,11.117 C20.324,11.117 20.324,8.421 17.628,8.421 L7.376,8.421 C7.376,8.421 4.682,8.421 4.682,11.117 L4.682,16.710 C4.682,16.710 4.682,19.407 7.376,19.407 L17.628,19.407 C17.628,19.407 20.324,19.407 20.324,16.710 L20.324,11.117 ZM10.418,10.913 L15.540,13.921 L10.418,16.929 L10.418,10.913 Z"/>
</svg>